<?xml version="1.0" encoding="UTF-8"?>
<svg version="1.1" xmlns="http://www.w3.org/2000/svg" viewBox="0 0 1984 1001">
<path d="M0 0 C1.10811035 0.19835449 2.2162207 0.39670898 3.35791016 0.60107422 C54.10885432 9.90183771 103.81512313 32.64756601 143.44628906 65.70654297 C145.01141052 67.00949921 146.59452896 68.28794353 148.1796875 69.56640625 C155.97733847 75.95767655 163.16762328 82.95880456 170.3125 90.0625 C171.23160156 90.97233643 172.15070312 91.88217285 173.09765625 92.81958008 C179.15649184 98.90632396 184.66769625 105.2719792 190 112 C190.95310919 113.16904445 191.90731993 114.33719291 192.86328125 115.50390625 C230.20903617 162.14142794 252.58208768 218.78017271 259 278 C259.1016748 278.91450928 259.20334961 279.82901855 259.30810547 280.77124023 C260.24401366 290.34803345 260.24353748 299.94878884 260.25 309.5625 C260.25101212 310.92134811 260.25101212 310.92134811 260.25204468 312.30764771 C260.233887 327.72555104 259.43886175 342.7499127 257 358 C256.75056641 359.59158936 256.75056641 359.59158936 256.49609375 361.21533203 C245.02688771 432.05891857 206.66187026 503.89504825 149.6953125 548.8515625 C147.92597317 550.26190545 146.18943245 551.71461251 144.4921875 553.2109375 C98.33206599 593.71879924 35.43519719 616.68726051 -25 623 C-25.88324951 623.09571289 -26.76649902 623.19142578 -27.67651367 623.29003906 C-110.44025535 631.29873894 -193.45013426 605.28550093 -257.875 553.3125 C-262.20131026 549.72340853 -266.40523261 546.01439951 -270.5546875 542.22265625 C-272.12590394 540.79450584 -273.71336236 539.38391432 -275.3203125 537.99609375 C-287.38914893 527.50058748 -298.05953327 515.53237483 -307.65966797 502.76416016 C-309.02109555 500.97223379 -310.41487161 499.20989964 -311.81640625 497.44921875 C-361.40746307 434.38025006 -380.78494675 350.8974158 -372 272 C-367.92250111 238.71741528 -358.67662814 206.16788862 -344 176 C-343.65582031 175.28279785 -343.31164062 174.5655957 -342.95703125 173.82666016 C-324.49271845 135.43892937 -297.37336679 97.87138932 -263.7578125 71.19921875 C-260.9054936 68.92463583 -258.14506241 66.56130007 -255.375 64.1875 C-243.42720746 54.23358228 -230.50112747 45.68392142 -217 38 C-216.21592773 37.54657227 -215.43185547 37.09314453 -214.62402344 36.62597656 C-183.3358237 18.60426244 -149.49445157 6.53739047 -114 0 C-112.89108398 -0.21027832 -111.78216797 -0.42055664 -110.63964844 -0.63720703 C-74.84638979 -7.13431621 -35.71985176 -6.7239212 0 0 Z M-249.25 83.4375 C-251.72679294 85.74542069 -254.25228742 87.97326209 -256.8125 90.1875 C-260.93208703 93.84280441 -264.46634641 97.78541925 -268 102 C-268.81082031 102.92296875 -269.62164062 103.8459375 -270.45703125 104.796875 C-303.53668652 142.63060095 -324.23294385 191.15470196 -330 241 C-330.10151367 241.86302734 -330.20302734 242.72605469 -330.30761719 243.61523438 C-340.31866162 332.35666922 -309.83158618 422.70449192 -254.94189453 492.17211914 C-251.53034746 496.42447067 -247.9652289 500.51796083 -244.265625 504.5234375 C-242.38853839 506.57528734 -240.56625363 508.65660954 -238.75 510.76171875 C-229.11506365 521.79735135 -218.56313154 532.01370172 -207 541 C-205.89698193 541.91203972 -204.79690035 542.8276383 -203.69921875 543.74609375 C-188.43920709 556.42065387 -171.59175848 566.87735077 -154 576 C-153.26523438 576.3810791 -152.53046875 576.7621582 -151.7734375 577.15478516 C-120.10062612 593.3429577 -83.45343695 604.00406435 -47.6796875 604.203125 C-46.82654465 604.21018463 -45.97340179 604.21724426 -45.09440613 604.22451782 C-26.88866433 604.34089071 -8.95435717 604.38514442 9 601 C10.01320313 600.81727539 11.02640625 600.63455078 12.0703125 600.44628906 C56.80191512 592.16114734 97.90642371 574.67703984 131 543 C131.55300781 542.47954102 132.10601563 541.95908203 132.67578125 541.42285156 C142.24336672 532.38979824 150.3265641 522.67619612 158 512 C158.648479 511.11852295 158.648479 511.11852295 159.31005859 510.21923828 C204.29769765 448.76879587 216.8340771 362.57897317 205.49609375 288.71728516 C190.86167451 200.84301777 142.16572052 111.81254546 69.0703125 59.1328125 C-13.64292377 0.72281933 -117.00657901 -0.16801616 -249.25 83.4375 Z " fill="#a9764a" transform="translate(397,133)"/>
<path d="M0 0 C1.17175781 0.04640625 2.34351563 0.0928125 3.55078125 0.140625 C5.32001953 0.19476563 5.32001953 0.19476563 7.125 0.25 C8.02863281 0.29640625 8.93226563 0.3428125 9.86328125 0.390625 C8.53444341 3.23264359 7.0365702 5.62283669 5.09765625 8.0859375 C4.54432617 8.79274658 3.99099609 9.49955566 3.42089844 10.2277832 C2.82438477 10.982771 2.22787109 11.73775879 1.61328125 12.515625 C0.34236539 14.13665405 -0.92846552 15.75774971 -2.19921875 17.37890625 C-2.85148437 18.2085791 -3.50375 19.03825195 -4.17578125 19.89306641 C-7.25885129 23.81983515 -10.32286845 27.76135399 -13.38671875 31.703125 C-14.2669873 32.83451904 -14.2669873 32.83451904 -15.16503906 33.98876953 C-18.50196526 38.27950515 -21.82625185 42.57944507 -25.13671875 46.890625 C-30.83141429 54.30675629 -36.57759467 61.68261084 -42.32226562 69.06005859 C-45.26185213 72.83579766 -48.1991959 76.61328035 -51.13671875 80.390625 C-52.30337414 81.89063377 -53.47004082 83.39063376 -54.63671875 84.890625 C-55.21421875 85.633125 -55.79171875 86.375625 -56.38671875 87.140625 C-61.63671875 93.890625 -61.63671875 93.890625 -63.38769531 96.1418457 C-64.55115187 97.63774162 -65.71456353 99.13367245 -66.87792969 100.62963867 C-69.84333873 104.44272276 -72.80959137 108.25514564 -75.77734375 112.06640625 C-80.91266578 118.66263886 -86.04543805 125.26031337 -91.13671875 131.890625 C-96.83141429 139.30675629 -102.57759467 146.68261084 -108.32226562 154.06005859 C-111.26185213 157.83579766 -114.1991959 161.61328035 -117.13671875 165.390625 C-118.30337414 166.89063377 -119.47004082 168.39063376 -120.63671875 169.890625 C-121.21421875 170.633125 -121.79171875 171.375625 -122.38671875 172.140625 C-141.63671875 196.890625 -141.63671875 196.890625 -143.38769531 199.1418457 C-144.55115187 200.63774162 -145.71456353 202.13367245 -146.87792969 203.62963867 C-149.84333873 207.44272276 -152.80959137 211.25514564 -155.77734375 215.06640625 C-161.70231148 222.67692514 -167.61176205 230.29821053 -173.484375 237.94921875 C-177.43440717 243.08441529 -181.42121183 248.19121004 -185.40429688 253.30078125 C-185.97470703 254.03296875 -186.54511719 254.76515625 -187.1328125 255.51953125 C-187.89356079 256.49515015 -187.89356079 256.49515015 -188.66967773 257.49047852 C-189.15380127 258.11752686 -189.6379248 258.7445752 -190.13671875 259.390625 C-191.0030896 260.37663696 -191.0030896 260.37663696 -191.88696289 261.38256836 C-193.35402037 263.2880553 -193.35402037 263.2880553 -192.94506836 265.43041992 C-191.57920137 268.74257517 -189.62427832 271.69609764 -187.69921875 274.703125 C-187.24748291 275.41678223 -186.79574707 276.13043945 -186.33032227 276.86572266 C-183.07703315 281.98118474 -179.74185446 287.03904165 -176.36132812 292.07104492 C-172.25629936 298.18602084 -168.22580382 304.348783 -164.19921875 310.515625 C-163.46932996 311.6333075 -162.73943075 312.75098321 -162.00952148 313.86865234 C-160.88062793 315.59729232 -159.75174749 317.32594083 -158.62297058 319.05465698 C-154.70013563 325.06142829 -150.76800392 331.06209586 -146.83511353 337.06228638 C-136.89554702 352.22664933 -126.97258007 367.40183063 -117.05273438 382.57910156 C-108.51893489 395.63525596 -99.97892446 408.68729423 -91.42926025 421.73306274 C-85.12999031 431.34517936 -78.83836445 440.96226444 -72.55078125 450.58203125 C-67.25154961 458.68847668 -61.94535684 466.7903385 -56.63671875 474.890625 C-49.93484234 485.11681071 -43.24009982 495.34762437 -36.55078125 505.58203125 C-31.25154957 513.68847674 -25.94532822 521.7903197 -20.63671875 529.890625 C-13.89901375 540.17177155 -7.16265316 550.45379151 -0.44311523 560.74682617 C2.83592613 565.76854777 6.12079179 570.78615652 9.42645264 575.79039001 C11.00659328 578.18320583 12.58346342 580.57816831 14.16009521 582.97329712 C15.2729861 584.66097421 16.39058473 586.34554394 17.50830078 588.0300293 C18.18103027 589.05265869 18.85375977 590.07528809 19.546875 591.12890625 C20.14040771 592.02649658 20.73394043 592.92408691 21.34545898 593.84887695 C22.81545278 596.31053135 23.83184621 598.72281121 24.86328125 601.390625 C17.74752653 601.67044444 10.6331967 601.86252185 3.51318359 601.99487305 C1.09369911 602.05005995 -1.32542064 602.12503262 -3.74365234 602.22045898 C-23.77668301 602.99096016 -23.77668301 602.99096016 -29.34033203 599.21826172 C-31.44491795 596.35728552 -32.78958177 593.66860499 -34.13671875 590.390625 C-35.12495404 588.8038386 -36.14192664 587.23446238 -37.19140625 585.6875 C-38.13480774 584.17392522 -39.07486739 582.65826281 -40.01171875 581.140625 C-43.50459997 575.55004999 -47.01880908 569.98480149 -50.69921875 564.515625 C-55.54821646 557.30305562 -60.31490519 550.03751353 -65.07421875 542.765625 C-65.48141144 542.14359192 -65.88860413 541.52155884 -66.30813599 540.88067627 C-68.41133356 537.66774564 -70.51413484 534.45455596 -72.61669922 531.24121094 C-76.22816663 525.72224775 -79.84329155 520.20568146 -83.45828247 514.68902588 C-85.43459114 511.67299921 -87.41064135 508.65680321 -89.38671875 505.640625 C-90.17838419 504.43229086 -90.97005086 503.22395753 -91.76171875 502.015625 C-115.51171881 465.76562491 -115.51171881 465.76562491 -116.69918823 463.95317078 C-117.49095564 462.74468421 -118.28272403 461.53619829 -119.07449341 460.32771301 C-121.05212674 457.30922939 -123.02974309 454.29073463 -125.00732422 451.2722168 C-128.58810517 445.80666149 -132.16901429 440.34119036 -135.75054932 434.87612915 C-144.41657012 421.6526328 -153.07734936 408.42575552 -161.72753906 395.19189453 C-167.77997623 385.93349123 -173.83979988 376.67994231 -179.90356445 367.42895508 C-180.70394543 366.2078494 -181.50431977 364.98673936 -182.3046875 363.765625 C-182.70220718 363.1591362 -183.09972687 362.5526474 -183.5092926 361.92778015 C-186.34232555 357.6047215 -189.17179637 353.27934419 -192 348.953125 C-195.55287633 343.51877263 -199.1110953 338.08796251 -202.67601013 332.66149902 C-204.61755186 329.7060619 -206.55685561 326.74920929 -208.49121094 323.7890625 C-210.71927921 320.38015843 -212.95869316 316.97885441 -215.19921875 313.578125 C-215.87235107 312.54518311 -216.5454834 311.51224121 -217.23901367 310.44799805 C-217.85623291 309.51511963 -218.47345215 308.58224121 -219.109375 307.62109375 C-219.64828369 306.80020264 -220.18719238 305.97931152 -220.74243164 305.13354492 C-221.20254639 304.55838135 -221.66266113 303.98321777 -222.13671875 303.390625 C-222.79671875 303.390625 -223.45671875 303.390625 -224.13671875 303.390625 C-225.80456666 305.3117387 -227.35133867 307.24170251 -228.88671875 309.265625 C-229.36842529 309.88985352 -229.85013184 310.51408203 -230.34643555 311.15722656 C-231.39591041 312.51739135 -232.44292189 313.87945949 -233.48779297 315.24316406 C-235.712311 318.14024143 -237.95824978 321.02038117 -240.20385742 323.90112305 C-241.9726698 326.17071543 -243.73868869 328.44245457 -245.50390625 330.71484375 C-249.19212636 335.46240375 -252.88299245 340.20790214 -256.57421875 344.953125 C-258.98808933 348.05558259 -258.98808933 348.05558259 -261.38347191 351.17229801 C-262.52821533 352.62070515 -263.7180401 354.03488626 -264.95480448 355.40555567 C-269.95047605 361.14370071 -271.15127719 365.18665288 -271.01646423 372.69813538 C-271.03156102 374.19812495 -271.03156102 374.19812495 -271.0469628 375.72841734 C-271.07208565 379.05937423 -271.04763464 382.3880606 -271.02319336 385.71899414 C-271.03108574 388.11439161 -271.04204917 390.50978064 -271.05584717 392.90515137 C-271.08157108 398.72148266 -271.07539123 404.5371426 -271.05497395 410.35348058 C-271.03293801 417.12494327 -271.05049816 423.89613117 -271.0704164 430.66757935 C-271.10488955 442.74190334 -271.10830475 454.81602642 -271.09204102 466.89038086 C-271.07631516 478.61504097 -271.07530804 490.33955103 -271.09399414 502.06420898 C-271.09571604 503.14942211 -271.09571604 503.14942211 -271.09747272 504.25655872 C-271.10332239 507.88625276 -271.10946034 511.51594623 -271.11574161 515.14563954 C-271.16742621 545.22740489 -271.16289617 575.30879779 -271.13671875 605.390625 C-287.96671875 605.390625 -304.79671875 605.390625 -322.13671875 605.390625 C-322.13671875 406.400625 -322.13671875 207.410625 -322.13671875 2.390625 C-305.30671875 2.390625 -288.47671875 2.390625 -271.13671875 2.390625 C-270.80671875 115.250625 -270.47671875 228.110625 -270.13671875 344.390625 C-266.17671875 339.110625 -262.21671875 333.830625 -258.13671875 328.390625 C-252.01171875 320.703125 -252.01171875 320.703125 -248.99609375 316.9609375 C-245.95951998 313.18447759 -243.00198025 309.35238648 -240.05712891 305.50390625 C-236.52279871 300.88604862 -232.95884994 296.29179613 -229.38671875 291.703125 C-228.79681152 290.94515625 -228.2069043 290.1871875 -227.59912109 289.40625 C-225.16809345 286.28317799 -222.73637088 283.16064738 -220.3046875 280.03808594 C-211.69579126 268.98363787 -211.69579126 268.98363787 -203.13671875 257.890625 C-197.44202321 250.47449371 -191.69584283 243.09863916 -185.95117188 235.72119141 C-183.01158537 231.94545234 -180.0742416 228.16796965 -177.13671875 224.390625 C-175.97006336 222.89061623 -174.80339668 221.39061624 -173.63671875 219.890625 C-173.05921875 219.148125 -172.48171875 218.405625 -171.88671875 217.640625 C-82.63671875 102.890625 -82.63671875 102.890625 -80.88574219 100.6394043 C-79.72228563 99.14350838 -78.55887397 97.64757755 -77.39550781 96.15161133 C-74.43009877 92.33852724 -71.46384613 88.52610436 -68.49609375 84.71484375 C-63.36077172 78.11861114 -58.22799945 71.52093663 -53.13671875 64.890625 C-47.44202321 57.47449371 -41.69584283 50.09863916 -35.95117188 42.72119141 C-32.43622433 38.20643235 -28.92430787 33.68931533 -25.41186523 29.17260742 C-22.35895564 25.24706913 -19.30514349 21.32223754 -16.25 17.3984375 C-15.61384766 16.58117187 -14.97769531 15.76390625 -14.32226562 14.921875 C-13.10380123 13.35654848 -11.88506572 11.79143294 -10.66601562 10.2265625 C-10.11623047 9.52015625 -9.56644531 8.81375 -9 8.0859375 C-8.51829346 7.46734863 -8.03658691 6.84875977 -7.5402832 6.21142578 C-6.53193022 4.90332063 -5.57507757 3.55491327 -4.65380859 2.18408203 C-3.13671875 0.390625 -3.13671875 0.390625 0 0 Z " fill="#a9764a" transform="translate(1419.13671875,141.609375)"/>
<path d="M0 0 C18.15 0 36.3 0 55 0 C57.59294922 10.19003906 57.59294922 10.19003906 60.23828125 20.5859375 C75.97527192 82.43077798 75.97527192 82.43077798 91.8125 144.25 C91.99804821 144.97170128 92.18359642 145.69340256 92.3747673 146.43697357 C92.93985781 148.63490549 93.50496286 150.83283366 94.07006836 153.03076172 C94.82668881 155.97362545 95.58327662 158.91649756 96.33984375 161.859375 C96.52665144 162.58596943 96.71345913 163.31256386 96.90592766 164.0611763 C101.67813848 182.62442754 106.42662615 201.19374471 111.1750946 219.7630806 C112.33889468 224.31401996 113.50295853 228.86489186 114.66699219 233.41577148 C118.33941769 247.77382304 122.01167288 262.13191786 125.68115234 276.49072266 C128.30686507 286.76500746 130.93382286 297.03897322 133.5625 307.3125 C133.77498005 308.14294579 133.9874601 308.97339157 134.20637894 309.82900238 C144.37754077 349.57684254 154.6776685 389.29118873 165 429 C165.20564685 428.18237781 165.20564685 428.18237781 165.41544819 427.34823799 C194.66241135 311.07115716 194.66241135 311.07115716 206.94116211 263.4362793 C207.68743592 260.54087829 208.43359624 257.64544805 209.1796875 254.75 C209.45864333 253.66762275 209.45864333 253.66762275 209.74323463 252.56337929 C213.25220965 238.94443177 216.72700194 225.3168537 220.1953125 211.6875 C220.4660792 210.62355389 220.73684589 209.55960777 221.01581764 208.46342087 C222.12596018 204.1011175 223.23600248 199.73878864 224.34596729 195.37644005 C233.89775187 157.83640555 243.50956616 120.31326601 253.2598381 82.82427025 C254.29980722 78.82562787 255.3394851 74.82690985 256.37890625 70.828125 C256.57778946 70.06306263 256.77667267 69.29800026 256.98158264 68.50975418 C259.73226155 57.92480721 262.45722533 47.33360492 265.15234375 36.734375 C265.4663765 35.49950851 265.78040924 34.26464203 266.10395813 32.99235535 C267.52745303 27.38904646 268.94667495 21.78468725 270.3605957 16.17895508 C270.60544205 15.2115741 270.85028839 14.24419312 271.10255432 13.24749756 C271.55054093 11.47728936 271.99667265 9.70661021 272.4405365 7.93536377 C273.88734344 2.22531313 273.88734344 2.22531313 275 0 C279.29 0 283.58 0 288 0 C280.81220029 28.98312089 273.52566389 57.93788564 266.06970596 86.85306549 C257.42341239 120.38513401 248.94350234 153.95825095 240.49316025 187.54018164 C231.69946959 222.48630006 222.88300337 257.42537413 213.88623047 292.31982422 C212.77772541 296.61931299 211.66973513 300.918934 210.5625 305.21875 C210.38066162 305.92488434 210.19882324 306.63101868 210.01147461 307.35855103 C205.18158024 326.1240139 200.44749281 344.91374067 195.70623016 363.70174789 C186.17550088 401.46476719 176.58552279 439.21160148 166.82993031 476.91720963 C165.33533428 482.69647685 163.84817893 488.47763696 162.36279297 494.25927734 C160.34633369 502.10664589 158.31903936 509.95113884 156.28030396 517.79275036 C155.20125835 521.94390244 154.12619493 526.0959691 153.06243896 530.25106812 C142.47596278 571.56637833 127.22424982 611.37599414 89 635 C63.84557969 649.83330098 35.00710709 656.12907319 6.10766602 648.83422852 C4.05678415 648.26319112 2.02862883 647.64538289 0 647 C-1.01078613 646.68651611 -1.01078613 646.68651611 -2.04199219 646.36669922 C-30.50673412 637.28871774 -55.32583434 616.59348617 -72 592 C-72.495 590.515 -72.495 590.515 -73 589 C-71.32254258 586.75624765 -69.6336146 584.74717444 -67.75 582.6875 C-66.63296612 581.42795027 -65.51844292 580.16617013 -64.40625 578.90234375 C-63.55160156 577.93337158 -63.55160156 577.93337158 -62.6796875 576.94482422 C-60.10074209 573.95879528 -57.66956468 570.86559794 -55.25 567.75 C-54.79915039 567.1732251 -54.34830078 566.5964502 -53.88378906 566.00219727 C-51.78554804 563.31349068 -49.70555113 560.61292649 -47.640625 557.8984375 C-46.93421875 556.98320313 -46.2278125 556.06796875 -45.5 555.125 C-44.8915625 554.32320312 -44.283125 553.52140625 -43.65625 552.6953125 C-43.1096875 552.13585937 -42.563125 551.57640625 -42 551 C-41.01 551 -40.02 551 -39 551 C-38.53851562 552.05316406 -38.07703125 553.10632813 -37.6015625 554.19140625 C-24.80329926 582.74419823 -4.92152519 606.95113098 24 620 C42.65700816 626.96635069 62.3590481 627.2988908 80.7578125 619.45703125 C88.33560602 615.88090191 94.80758758 611.62946584 101 606 C102.24716797 604.87464844 102.24716797 604.87464844 103.51953125 603.7265625 C118.31223545 589.68371888 128.0847641 570.88204829 134.15925598 551.56803894 C135 549 135 549 135.98353577 546.67686462 C139.8272551 535.86644751 135.85978708 525.68191731 132.9765625 515.078125 C132.40548571 512.89497989 131.83696852 510.71116386 131.27082825 508.5267334 C129.7404624 502.65050255 128.17536322 496.78403694 126.60389328 490.91868591 C124.95442479 484.73682528 123.33828053 478.54626657 121.71899414 472.35644531 C119.08505407 462.30348034 116.43358074 452.25531616 113.76708984 442.2109375 C110.46830043 429.78348735 107.20153468 417.34797311 103.95703125 404.90625 C103.48923265 403.11297976 103.02142872 401.31971092 102.55361938 399.52644348 C101.86378313 396.88192533 101.17399774 394.237394 100.48441887 391.59280872 C98.88186197 385.44828914 97.27370004 379.30525386 95.66308594 373.1628418 C88.14570101 344.4852735 80.74725969 315.77768317 73.375 287.0625 C72.79514957 284.80412701 72.21529525 282.54575502 71.63543701 280.28738403 C71.34923492 279.17270406 71.06303284 278.05802408 70.76815796 276.90956593 C69.3416381 271.35374597 67.91501842 265.79795166 66.48828125 260.2421875 C66.20924202 259.15554998 65.93020279 258.06891247 65.64270782 256.94934654 C60.3108132 236.18807323 54.9474087 215.4350809 49.5625 194.6875 C49.35840515 193.90112152 49.1543103 193.11474304 48.94403076 192.30453491 C47.0452196 184.98875883 45.14588541 177.67311858 43.24606323 170.35760498 C39.75917837 156.9299375 36.2781952 143.50074432 32.79868126 130.07116508 C31.8614434 126.45384421 30.92412169 122.83654508 29.98677063 119.21925354 C29.67638572 118.02145736 29.3660008 116.82366117 29.04621029 115.58956814 C28.41857999 113.16750781 27.79094848 110.7454478 27.16331577 108.3233881 C25.63975377 102.44378849 24.11634245 96.56414993 22.59329224 90.68441772 C21.16170316 85.15785004 19.72952593 79.63143503 18.29702187 74.10510445 C17.7425775 71.96567033 17.18835427 69.82617889 16.63435936 67.68662834 C13.68919895 56.31249879 10.72719089 44.94327846 7.71972656 33.58544922 C7.19889672 31.61426524 6.6781132 29.64306903 6.15737915 27.67185974 C5.1871073 23.9995229 4.210471 20.32896145 3.23007202 16.65931702 C2.79849117 15.02806718 2.367132 13.39675867 1.93603516 11.76538086 C1.63889051 10.66415673 1.63889051 10.66415673 1.33574295 9.54068565 C0.45866231 6.20108981 0 3.48539617 0 0 Z " fill="#a9764a" transform="translate(1643,305)"/>
<path d="M0 0 C0.73127106 -0.00696899 1.46254211 -0.01393799 2.2159729 -0.02111816 C4.56721819 -0.03842802 6.91822487 -0.04483942 9.26953125 -0.046875 C10.07305023 -0.04788208 10.87656921 -0.04888916 11.70443726 -0.04992676 C24.37829033 -0.0391858 36.64640686 0.56683 49.08203125 3.203125 C50.08919189 3.40397705 50.08919189 3.40397705 51.11669922 3.60888672 C65.10739686 6.48225629 79.50569048 12.41697061 90.08203125 22.203125 C90.89929688 22.91855469 91.7165625 23.63398438 92.55859375 24.37109375 C105.16898632 36.04808868 111.64177614 51.783724 115.26953125 68.328125 C115.42454102 69.02446045 115.57955078 69.7207959 115.73925781 70.43823242 C119.33416185 88.16408552 119.37878427 106.06593301 119.35472834 124.07344317 C119.35221571 127.64122886 119.36136596 131.20898839 119.36911011 134.77676392 C119.38106701 140.93859715 119.38625832 147.10040469 119.3869915 153.26224899 C119.38832659 162.18503537 119.40351894 171.10776013 119.42248667 180.03052457 C119.45321867 194.53124702 119.47743687 209.03197103 119.49536133 223.53271484 C119.49643401 224.39780102 119.49750669 225.2628872 119.49861187 226.15418811 C119.5104409 235.81303644 119.52064869 245.47188539 119.52905273 255.1307373 C119.53212729 258.63907879 119.53521598 262.14742027 119.53833008 265.65576172 C119.53947809 266.95451379 119.53947809 266.95451379 119.54064929 268.27950327 C119.55374988 282.73870241 119.57840844 297.19785642 119.61207348 311.65702212 C119.63229637 320.55403487 119.64266219 329.45095098 119.64008427 338.34798689 C119.63904586 344.44278444 119.64873945 350.53750559 119.6667233 356.63227646 C119.67672088 360.14183418 119.68194757 363.65122277 119.67395592 367.16078949 C119.66778964 370.97612832 119.68009155 374.79099486 119.69676208 378.60629272 C119.69055027 379.69940431 119.68433845 380.7925159 119.6779384 381.91875207 C119.76980057 393.51761054 121.64065317 404.95574954 129.08203125 414.203125 C134.99587958 419.88089156 140.65028506 422.24417618 148.83203125 422.578125 C157.80026136 422.38943699 164.7279466 419.39328936 171.26171875 413.26953125 C175.45810312 408.50582453 178.29548666 402.86736284 181.08203125 397.203125 C184.43798953 397.80240326 186.46004351 399.04934936 189.08203125 401.203125 C185.5957542 414.13904773 177.75221068 423.92004288 166.39453125 430.953125 C154.78549441 437.40586375 143.0876746 439.39166401 130.01953125 439.453125 C128.95025391 439.47375 127.88097656 439.494375 126.77929688 439.515625 C110.90826535 439.59234298 96.86612203 434.69984691 85.33203125 423.609375 C74.50289635 412.02821684 70.67777794 398.46105067 68.08203125 383.203125 C67.68113281 383.88117188 67.28023437 384.55921875 66.8671875 385.2578125 C62.57132625 392.29094588 57.77895279 398.26480848 52.08203125 404.203125 C51.03402344 405.34587891 51.03402344 405.34587891 49.96484375 406.51171875 C31.68203176 425.83256585 4.74755898 438.27152318 -21.76464844 439.31518555 C-60.48720415 440.05389475 -100.17908649 434.07505364 -129.91796875 407.203125 C-150.03832254 387.71670017 -159.5294728 361.50625413 -160.20361328 333.80639648 C-160.49483318 304.89884991 -153.74416568 276.9696081 -133.91796875 255.203125 C-133.31726563 254.52121094 -132.7165625 253.83929687 -132.09765625 253.13671875 C-117.58232688 237.58458013 -97.58812842 227.91641678 -78.0078125 220.45703125 C-76.89028595 220.02946533 -75.7727594 219.60189941 -74.62136841 219.16137695 C-60.45896353 213.81022043 -46.05489467 209.18407528 -31.65332031 204.52587891 C10.02174435 191.05042258 10.02174435 191.05042258 47.08203125 168.203125 C48.11070312 167.41035156 49.139375 166.61757813 50.19921875 165.80078125 C60.29217092 157.88925862 66.4400565 150.1645867 68.08203125 137.203125 C68.54553147 130.21176385 68.47159157 123.20194681 68.41821289 116.19897461 C68.39485912 112.93642829 68.39763698 109.67471693 68.40429688 106.41210938 C69.19987657 62.03406264 69.19987657 62.03406264 51.08203125 23.203125 C40.25945561 13.27549311 27.72810746 8.3946908 13.08203125 8.203125 C-30.54741896 10.56005808 -66.42196699 45.69198584 -95.60546875 74.765625 C-96.10153625 75.25892303 -96.59760376 75.75222107 -97.10870361 76.26046753 C-98.53119707 77.67715067 -99.94927427 79.09826392 -101.3671875 80.51953125 C-102.19565186 81.34912354 -103.02411621 82.17871582 -103.87768555 83.03344727 C-106.05428893 85.227881 -106.05428893 85.227881 -107.91796875 88.203125 C-108.57796875 88.203125 -109.23796875 88.203125 -109.91796875 88.203125 C-108.06462021 74.6967886 -106.09189341 61.21128576 -103.48046875 47.828125 C-103.20940308 46.33345703 -103.20940308 46.33345703 -102.93286133 44.80859375 C-101.78333201 39.16322542 -100.69603757 35.8118774 -95.91796875 32.203125 C-93.59796223 30.70014 -91.33707752 29.33195846 -88.91796875 28.015625 C-88.22574219 27.63543213 -87.53351563 27.25523926 -86.8203125 26.86352539 C-60.22177527 12.45891633 -30.73091754 0.19856662 0 0 Z M68.08203125 165.203125 C66.78816244 166.61992672 65.52322233 168.06315046 64.26953125 169.515625 C41.91492142 194.5147076 13.89553357 206.78459882 -16.75837708 218.78106689 C-49.57456974 231.6367654 -80.97126627 245.39610272 -96.59765625 278.79296875 C-108.85686869 307.36730221 -110.49616776 343.01718518 -99.16796875 372.078125 C-93.53047284 385.0542066 -86.84333688 395.15763139 -76.91796875 405.203125 C-76.02658203 406.20279297 -76.02658203 406.20279297 -75.1171875 407.22265625 C-62.7201575 420.85016069 -42.42930328 428.22018108 -24.390625 429.36328125 C0.2170188 430.12298032 21.58647872 419.69358851 39.3125 403.2265625 C51.26833722 391.85033836 59.8838481 379.00527123 67.08203125 364.203125 C67.43994184 363.47483396 67.79785244 362.74654291 68.16660881 361.99618244 C69.34946479 358.38715502 69.35208369 354.99099506 69.32254028 351.23686218 C69.32424913 350.4403809 69.32595798 349.64389962 69.32771862 348.82328254 C69.33100961 346.15773124 69.32001626 343.49243236 69.30908203 340.8269043 C69.30851783 338.9148611 69.30883465 337.00281748 69.30996704 335.09077454 C69.31054122 329.90111556 69.29877633 324.7115489 69.28481913 319.52191138 C69.27232264 314.09801179 69.27114212 308.67411013 69.26876831 303.25019836 C69.26255037 292.97971393 69.24613527 282.70927205 69.22606933 272.43880635 C69.20372014 260.74605304 69.19271936 249.0532977 69.18267846 237.36052835 C69.16176934 213.30803697 69.12658722 189.25558337 69.08203125 165.203125 C68.75203125 165.203125 68.42203125 165.203125 68.08203125 165.203125 Z " fill="#a9764a" transform="translate(842.91796875,302.796875)"/>
<path d="M0 0 C16.5 0 33 0 50 0 C50 206.25 50 412.5 50 625 C33.5 625 17 625 0 625 C0 418.75 0 212.5 0 0 Z " fill="#a9764a" transform="translate(1513,117)"/>
<path d="M0 0 C0.66616333 0.24143738 1.33232666 0.48287476 2.01867676 0.73162842 C2.65736694 0.96311584 3.29605713 1.19460327 3.95410156 1.43310547 C53.04623056 19.22076421 93.16571816 26.27629483 145.19311523 20.37255859 C145.98909119 20.28308456 146.78506714 20.19361053 147.60516357 20.10142517 C149.09627412 19.93277853 150.58699672 19.76064761 152.07720947 19.58424377 C156.42534279 19.09078424 160.63404945 18.9234793 165 19 C161.860725 22.5521325 158.44540198 24.55904313 154.1875 26.5 C153.52733887 26.80188232 152.86717773 27.10376465 152.18701172 27.41479492 C129.85240087 37.28388453 105.0484993 37.39953654 81.1875 34.8125 C80.21820557 34.71171143 79.24891113 34.61092285 78.25024414 34.50708008 C59.07596745 32.20505074 40.83816246 26.94639734 22.61703491 20.72943115 C-67.73064085 -14.20334579 -67.73064085 -14.20334579 -160 -6 C-172.41456843 0.29024913 -182.42427947 8.99869189 -192 19 C-192.66 18.67 -193.32 18.34 -194 18 C-185.98744952 4.44790844 -177.10013193 -6.30165211 -163 -14 C-161.77796875 -14.67289063 -161.77796875 -14.67289063 -160.53125 -15.359375 C-109.65946161 -40.7952692 -49.25402705 -17.85468979 0 0 Z " fill="#a9764a" transform="translate(409,61)"/>
<path d="M0 0 C4.62 0 9.24 0 14 0 C14.4031543 1.15411377 14.80630859 2.30822754 15.22167969 3.49731445 C16.73432588 7.82698643 18.24789159 12.15633651 19.76171875 16.4855957 C20.41365782 18.35041845 21.06535582 20.21532549 21.71679688 22.08032227 C26.77292305 36.57066016 26.77292305 36.57066016 32 51 C32.22026855 50.34330322 32.44053711 49.68660645 32.66748047 49.01000977 C38.24975625 32.44256146 44.35701907 16.17059659 51 0 C55.29 0 59.58 0 64 0 C64 21.45 64 42.9 64 65 C61.03 65 58.06 65 55 65 C54.67 48.5 54.34 32 54 15 C49.19789986 28.46166138 49.19789986 28.46166138 44.3972168 41.92382812 C43.7896016 43.62632022 43.18193871 45.3287953 42.57421875 47.03125 C42.2656897 47.89717773 41.95716064 48.76310547 41.63928223 49.65527344 C39.80607719 54.78853887 37.92747299 59.90135659 36 65 C33.03 65 30.06 65 27 65 C23.51833888 56.62040883 20.55199918 48.09660376 17.6262207 39.51171875 C16.80679028 37.10825287 15.98278163 34.70639144 15.15820312 32.3046875 C14.63254405 30.76832099 14.107144 29.23186583 13.58203125 27.6953125 C13.3372554 26.98174591 13.09247955 26.26817932 12.84028625 25.5329895 C11.76341369 22.3670085 10.81198328 19.24793313 10 16 C9.67 32.17 9.34 48.34 9 65 C6.03 65 3.06 65 0 65 C0 43.55 0 22.1 0 0 Z M8 10 C9 13 9 13 9 13 Z " fill="#a9764a" transform="translate(72,833)"/>
<path d="M0 0 C12 0 12 0 15.0859375 2.91015625 C15.89363389 4.26868505 16.65432517 5.6558722 17.375 7.0625 C17.80578857 7.80894775 18.23657715 8.55539551 18.68041992 9.32446289 C19.62923365 10.96888394 20.56068322 12.62341258 21.47705078 14.28613281 C23.69438233 18.2373764 26.083481 22.07733192 28.46142578 25.93334961 C33.37803308 33.91262325 38.17804983 41.96341639 43 50 C43.33 33.5 43.66 17 44 0 C46.97 0 49.94 0 53 0 C53 21.45 53 42.9 53 65 C41 65 41 65 37.87109375 61.96875 C37.01481841 60.50461438 36.20668695 59.011705 35.4375 57.5 C34.46240842 55.78506024 33.48713318 54.0702249 32.51171875 52.35546875 C31.97466309 51.37368652 31.43760742 50.3919043 30.88427734 49.38037109 C28.29882028 44.74209194 25.5689504 40.19531334 22.83683777 35.64237976 C18.52157771 28.44880016 14.26714435 21.2236658 10 14 C9.67 30.83 9.34 47.66 9 65 C6.03 65 3.06 65 0 65 C0 43.55 0 22.1 0 0 Z " fill="#a9764a" transform="translate(1155,833)"/>
<path d="M0 0 C12 0 12 0 15.0859375 2.91015625 C15.89363389 4.26868505 16.65432517 5.6558722 17.375 7.0625 C17.80578857 7.80894775 18.23657715 8.55539551 18.68041992 9.32446289 C19.62923365 10.96888394 20.56068322 12.62341258 21.47705078 14.28613281 C23.69438233 18.2373764 26.083481 22.07733192 28.46142578 25.93334961 C33.37803308 33.91262325 38.17804983 41.96341639 43 50 C43.33 33.5 43.66 17 44 0 C46.97 0 49.94 0 53 0 C53 21.45 53 42.9 53 65 C41 65 41 65 37.87109375 61.96875 C37.01481841 60.50461438 36.20668695 59.011705 35.4375 57.5 C34.46240842 55.78506024 33.48713318 54.0702249 32.51171875 52.35546875 C31.97466309 51.37368652 31.43760742 50.3919043 30.88427734 49.38037109 C28.29882028 44.74209194 25.5689504 40.19531334 22.83683777 35.64237976 C18.52157771 28.44880016 14.26714435 21.2236658 10 14 C9.67 30.83 9.34 47.66 9 65 C6.03 65 3.06 65 0 65 C0 43.55 0 22.1 0 0 Z " fill="#a9764a" transform="translate(644,833)"/>
<path d="M0 0 C36.08616188 0 36.08616188 0 45.69140625 8.49609375 C52.14709345 15.24301496 54.22083785 23.34348164 54.5 32.5 C54.19060509 42.33077364 51.79384118 50.09252548 44.93359375 57.27734375 C31.4380659 69.3006322 20.20099677 65 0 65 C0 43.55 0 22.1 0 0 Z M9 8 C9 24.17 9 40.34 9 57 C27.50928802 58.49071198 27.50928802 58.49071198 37 53 C39.09981917 50.88727648 39.09981917 50.88727648 40.4375 48.5 C40.91058594 47.7471875 41.38367188 46.994375 41.87109375 46.21875 C45.40339592 39.27637065 45.09681911 29.69121426 43.3515625 22.2265625 C41.20443242 16.84956154 37.94228992 13.01858287 33 10 C25.00760459 6.80304184 18.03395576 8 9 8 Z " fill="#a9764a" transform="translate(318,833)"/>
<path d="M0 0 C7.59533505 8.16498518 9.60002509 18.05283746 9.453125 28.88671875 C8.71589734 38.72003469 5.67068728 46.39148104 -1.34375 53.39453125 C-9.528829 60.14204099 -18.52701912 60.35111916 -28.8125 59.4296875 C-35.39885401 58.25691858 -40.47444704 54.42586388 -44.8125 49.4296875 C-51.68653227 38.21684773 -52.91980009 25.48257309 -49.94140625 12.6875 C-46.76732507 4.5077367 -42.21352272 -1.17100425 -34.25 -4.9453125 C-22.65611315 -9.47782196 -9.62527293 -8.33913732 0 0 Z M-35.8125 6.4296875 C-41.05136245 14.79770834 -43.1357831 23.18527322 -41.3515625 32.953125 C-39.40095996 40.41131118 -36.23264659 46.32498191 -29.5625 50.4296875 C-22.46613999 52.32205017 -16.06884039 52.48850199 -9.56640625 48.7578125 C-4.27290349 44.74936943 -2.32635775 39.77062675 -0.8125 33.4296875 C0.16274769 22.83804403 -0.93210337 15.37962899 -6.6875 6.5546875 C-14.93878712 -1.69659962 -27.38777664 -1.05895548 -35.8125 6.4296875 Z " fill="#a9764a" transform="translate(248.8125,839.5703125)"/>
<path d="M0 0 C29 0 29 0 39 3 C43.73433171 7.73433171 46.13957251 10.5139231 46.25 17.25 C46.19837716 22.88426477 45.08137939 26.50234474 41.4375 30.875 C40 32 40 32 38 32 C38.78375 32.886875 39.5675 33.77375 40.375 34.6875 C43.98657289 38.77427985 45.22446359 42.89721227 45.4140625 48.30078125 C45.47207031 49.76547852 45.47207031 49.76547852 45.53125 51.25976562 C45.5621875 52.26716797 45.593125 53.27457031 45.625 54.3125 C45.68300781 55.85260742 45.68300781 55.85260742 45.7421875 57.42382812 C45.83614897 59.94904265 45.9218154 62.47425592 46 65 C44.52093108 65.02689216 43.04172517 65.04634621 41.5625 65.0625 C40.73878906 65.07410156 39.91507813 65.08570313 39.06640625 65.09765625 C37 65 37 65 36 64 C35.76168252 60.26257672 35.60420612 56.53170039 35.48242188 52.7890625 C35.24911153 47.3833059 35.00593288 43.00593288 31 39 C28.22978655 38.09592428 25.57209296 37.82860465 22.671875 37.68359375 C21.5905127 37.62643188 21.5905127 37.62643188 20.48730469 37.56811523 C19.58399414 37.52501221 18.68068359 37.48190918 17.75 37.4375 C14.8625 37.293125 11.975 37.14875 9 37 C9 46.24 9 55.48 9 65 C6.03 65 3.06 65 0 65 C0 43.55 0 22.1 0 0 Z M9 8 C9 14.93 9 21.86 9 29 C12.17625 29.0825 15.3525 29.165 18.625 29.25 C20.1092749 29.30462402 20.1092749 29.30462402 21.62353516 29.36035156 C27.42923302 29.43311349 30.56155306 28.81351361 35 25 C37.10857453 22.34136255 37.00023614 21.01298793 36.9375 17.5625 C35.81927119 13.31323051 34.41835675 11.70288673 31 9 C28.18063547 8.06879712 25.62859329 7.88122433 22.671875 7.90234375 C21.5905127 7.90609009 21.5905127 7.90609009 20.48730469 7.90991211 C19.13233887 7.92356812 19.13233887 7.92356812 17.75 7.9375 C13.41875 7.9684375 13.41875 7.9684375 9 8 Z " fill="#a9764a" transform="translate(1047,833)"/>
<path d="M0 0 C29 0 29 0 39 3 C43.73433171 7.73433171 46.13957251 10.5139231 46.25 17.25 C46.19837716 22.88426477 45.08137939 26.50234474 41.4375 30.875 C40 32 40 32 38 32 C38.78375 32.886875 39.5675 33.77375 40.375 34.6875 C43.98657289 38.77427985 45.22446359 42.89721227 45.4140625 48.30078125 C45.47207031 49.76547852 45.47207031 49.76547852 45.53125 51.25976562 C45.5621875 52.26716797 45.593125 53.27457031 45.625 54.3125 C45.68300781 55.85260742 45.68300781 55.85260742 45.7421875 57.42382812 C45.83614897 59.94904265 45.9218154 62.47425592 46 65 C44.52093108 65.02689216 43.04172517 65.04634621 41.5625 65.0625 C40.73878906 65.07410156 39.91507813 65.08570313 39.06640625 65.09765625 C37 65 37 65 36 64 C35.76168252 60.26257672 35.60420612 56.53170039 35.48242188 52.7890625 C35.24911153 47.3833059 35.00593288 43.00593288 31 39 C28.22978655 38.09592428 25.57209296 37.82860465 22.671875 37.68359375 C21.5905127 37.62643188 21.5905127 37.62643188 20.48730469 37.56811523 C19.58399414 37.52501221 18.68068359 37.48190918 17.75 37.4375 C14.8625 37.293125 11.975 37.14875 9 37 C9 46.24 9 55.48 9 65 C6.03 65 3.06 65 0 65 C0 43.55 0 22.1 0 0 Z M9 8 C9 14.93 9 21.86 9 29 C12.17625 29.0825 15.3525 29.165 18.625 29.25 C20.1092749 29.30462402 20.1092749 29.30462402 21.62353516 29.36035156 C27.42923302 29.43311349 30.56155306 28.81351361 35 25 C37.10857453 22.34136255 37.00023614 21.01298793 36.9375 17.5625 C35.81927119 13.31323051 34.41835675 11.70288673 31 9 C28.18063547 8.06879712 25.62859329 7.88122433 22.671875 7.90234375 C21.5905127 7.90609009 21.5905127 7.90609009 20.48730469 7.90991211 C19.13233887 7.92356812 19.13233887 7.92356812 17.75 7.9375 C13.41875 7.9684375 13.41875 7.9684375 9 8 Z " fill="#a9764a" transform="translate(536,833)"/>
<path d="M0 0 C14.19 0 28.38 0 43 0 C43 2.64 43 5.28 43 8 C31.78 8 20.56 8 9 8 C9 14.27 9 20.54 9 27 C19.56 27 30.12 27 41 27 C41 29.64 41 32.28 41 35 C30.44 35 19.88 35 9 35 C9 42.26 9 49.52 9 57 C20.55 57 32.1 57 44 57 C44 59.31 44 61.62 44 64 C43 65 43 65 41.24729919 65.12025452 C40.10479454 65.1169236 40.10479454 65.1169236 38.93920898 65.11352539 C38.06631226 65.11340454 37.19341553 65.11328369 36.29406738 65.11315918 C35.37073608 65.10804321 34.44740479 65.10292725 33.49609375 65.09765625 C32.6517981 65.09664917 31.80750244 65.09564209 30.93762207 65.09460449 C27.77090098 65.0893557 24.60419919 65.07539456 21.4375 65.0625 C14.363125 65.041875 7.28875 65.02125 0 65 C0 43.55 0 22.1 0 0 Z " fill="#a9764a" transform="translate(433,833)"/>
<path d="M0 0 C2.97 0 5.94 0 9 0 C9.01458252 1.32652588 9.02916504 2.65305176 9.04418945 4.01977539 C9.10234122 8.9606364 9.17957334 13.90104972 9.26245117 18.84155273 C9.29562117 20.97624422 9.32367758 23.11102173 9.34643555 25.24584961 C9.38012717 28.32182331 9.43245103 31.39701426 9.48828125 34.47265625 C9.49467117 35.42084732 9.5010611 36.36903839 9.50764465 37.34596252 C9.65542087 44.06806977 10.54265965 49.08190833 15 54.375 C19.55524088 58.07613322 25.42588729 57.55820871 31 57 C35.60707318 54.9432709 37.50408261 52.78515434 39.3866272 48.13693237 C40.59736473 43.91883823 40.48300091 39.61360909 40.51171875 35.25390625 C40.52966995 34.24279282 40.54762115 33.23167938 40.56611633 32.18992615 C40.62002042 28.9808257 40.65405149 25.77187231 40.6875 22.5625 C40.7206906 20.37823484 40.75518186 18.19398902 40.79101562 16.00976562 C40.87573564 10.67328351 40.94264185 5.33684351 41 0 C44.3 0 47.6 0 51 0 C51.04992943 5.47687495 51.0859669 10.95361354 51.10986328 16.43066406 C51.11983921 18.2887605 51.13342478 20.14684158 51.15087891 22.00488281 C51.42724104 52.209638 51.42724104 52.209638 43.6171875 60.4609375 C37.12967056 66.33706541 30.13274937 66.44388408 21.7734375 66.3125 C15.28812996 65.77541449 9.54115215 64.1153385 5.0625 59.1875 C0.24993923 51.74990608 -0.42359047 46.33469861 -0.29296875 37.59765625 C-0.28872391 36.51995468 -0.28447906 35.44225311 -0.28010559 34.33189392 C-0.26338719 30.90850254 -0.22574683 27.4857118 -0.1875 24.0625 C-0.17244436 21.73373249 -0.1587575 19.40495571 -0.14648438 17.07617188 C-0.11350593 11.3838851 -0.06177019 5.6920442 0 0 Z " fill="#a9764a" transform="translate(932,833)"/>
<path d="M0 0 C3.96 0 7.92 0 12 0 C14.538949 6.85061598 17.07760846 13.70133911 19.61577988 20.55224323 C20.79478473 23.73451947 21.97390881 26.91675141 23.15332031 30.09887695 C24.51398587 33.77022879 25.87421975 37.44174033 27.234375 41.11328125 C27.85962067 42.79989616 27.85962067 42.79989616 28.49749756 44.52058411 C31.02264165 51.33837781 33.52178496 58.1650033 36 65 C32.37 65 28.74 65 25 65 C23.99394407 62.39802798 22.99497475 59.79370638 22 57.1875 C21.71382812 56.44951172 21.42765625 55.71152344 21.1328125 54.95117188 C20.86210938 54.23896484 20.59140625 53.52675781 20.3125 52.79296875 C20.06113281 52.1383667 19.80976562 51.48376465 19.55078125 50.80932617 C19 49 19 49 19 46 C10.42 46 1.84 46 -7 46 C-7.66 48.97 -8.32 51.94 -9 55 C-9.65410414 56.8739845 -10.35245923 58.73415351 -11.125 60.5625 C-11.74375 62.026875 -12.3625 63.49125 -13 65 C-16.3 65 -19.6 65 -23 65 C-15.35758658 43.32469051 -7.6936045 21.65719377 0 0 Z M5 10 C0.545 23.86 0.545 23.86 -4 38 C2.6 38 9.2 38 16 38 C14.16548663 31.5792032 12.11517902 25.24879771 9.9375 18.9375 C9.6801709 18.1751001 9.4228418 17.4127002 9.15771484 16.62719727 C8.02146123 12.5750653 8.02146123 12.5750653 5 10 Z " fill="#a9764a" transform="translate(1473,833)"/>
<path d="M0 0 C4.01126813 4.43608676 6.68757351 8.90768353 7 15 C3.84562954 15.56778668 1.13014863 15.77351284 -2 15 C-3.84719476 12.87769113 -5.08795889 10.64320851 -6.48828125 8.20703125 C-8.53088613 5.22493369 -10.36199152 4.26587595 -13.7890625 3.30078125 C-19.36201422 2.54262351 -24.16573776 3.20399941 -29.3125 5.4375 C-34.78384936 10.654368 -37.58047817 17.65353571 -38.16796875 25.140625 C-38.24402783 33.35500518 -37.33078899 40.45074495 -32 47 C-26.73214257 51.75392012 -22.63945263 52.36463658 -15.7265625 52.2734375 C-11.81071107 51.88073034 -9.83789063 50.69945694 -7 48 C-5.443427 45.72125521 -4.24020171 43.48040342 -3 41 C0.3 41 3.6 41 7 41 C4.77676834 48.72280471 2.58633558 54.02626025 -4.5625 58.3125 C-12.08218577 62.00398211 -20.84306889 62.25016512 -28.96484375 60.28125 C-34.00981463 58.39981725 -37.51495455 56.20255481 -41 52 C-41.70125 51.2575 -42.4025 50.515 -43.125 49.75 C-47.60222708 43.18340028 -48.56048265 35.98673801 -48.5 28.1875 C-48.49355469 27.31383789 -48.48710938 26.44017578 -48.48046875 25.54003906 C-48.21014432 15.93285096 -45.72682778 8.56593272 -39.125 1.4375 C-28.47161466 -8.21462732 -11.51108069 -8.64864499 0 0 Z " fill="#a9764a" transform="translate(1390,838)"/>
<path d="M0 0 C13.86 0 27.72 0 42 0 C42 2.64 42 5.28 42 8 C31.11 8 20.22 8 9 8 C9 14.6 9 21.2 9 28 C19.23 28 29.46 28 40 28 C40 30.97 40 33.94 40 37 C29.77 37 19.54 37 9 37 C9 46.24 9 55.48 9 65 C6.03 65 3.06 65 0 65 C0 43.55 0 22.1 0 0 Z " fill="#a9764a" transform="translate(832,833)"/>
<path d="M0 0 C2.97 0 5.94 0 9 0 C9 21.45 9 42.9 9 65 C6.03 65 3.06 65 0 65 C0 43.55 0 22.1 0 0 Z " fill="#a9764a" transform="translate(1272,833)"/>
</svg>
